<svg version="1.1" xmlns="http://www.w3.org/2000/svg" viewBox="0 0 1109.1723380909664 931.5489466523712" width="2218.3446761819328" height="1863.0978933047425">
  <!-- svg-source:excalidraw -->
  
  <defs>
    <style class="style-fonts">
      @font-face {
        font-family: "Virgil";
        src: url("https://excalidraw.com/Virgil.woff2");
      }
      @font-face {
        font-family: "Cascadia";
        src: url("https://excalidraw.com/Cascadia.woff2");
      }
      @font-face {
        font-family: "Assistant";
        src: url("https://excalidraw.com/Assistant-Regular.woff2");
      }
    </style>
    
  </defs>
  <rect x="0" y="0" width="1109.1723380909664" height="931.5489466523712" fill="#ffffff"></rect><g stroke-linecap="round" transform="translate(10 628.5489466523712) rotate(0 146.5 146.5)"><path d="M0 0 C59.89 0.59, 122.43 -1.3, 293 0 M0 0 C89.64 -0.66, 178.92 -0.02, 293 0 M293 0 C295.34 78.56, 294.95 154.32, 293 293 M293 0 C291.27 74.37, 290.85 149.61, 293 293 M293 293 C217.35 292.43, 138.01 291.92, 0 293 M293 293 C184.27 291.89, 74.32 291.98, 0 293 M0 293 C1.43 196.66, -0.1 99.88, 0 0 M0 293 C1.61 198.14, 1.69 103.39, 0 0" stroke="#1e1e1e" stroke-width="2" fill="none"></path></g><g stroke-linecap="round" transform="translate(23 648.5489466523712) rotate(0 11 29)"><path d="M0 0 C10.46 -0.02, 18.78 0.78, 22 0 M0 0 C7.88 0.51, 13.95 -1.2, 22 0 M22 0 C22.61 14.34, 19.94 27.78, 22 58 M22 0 C22.26 23.38, 21.46 44.68, 22 58 M22 58 C17.62 57.1, 14.45 59.3, 0 58 M22 58 C13.19 58.05, 6.78 58.61, 0 58 M0 58 C0.94 40.8, 2.04 22.32, 0 0 M0 58 C0.24 40.44, 0.04 20.65, 0 0" stroke="#2f9e44" stroke-width="2" fill="none"></path></g><g stroke-linecap="round" transform="translate(25 835.5766810347135) rotate(0 11 29)"><path d="M0 0 C2.74 0.54, 9.43 0.59, 22 0 M0 0 C7.7 0.26, 14.42 -0.56, 22 0 M22 0 C20.58 14.91, 21.25 30.13, 22 58 M22 0 C21.71 13.62, 22.53 24.57, 22 58 M22 58 C14.77 58.3, 11.77 58.67, 0 58 M22 58 C16.86 57.81, 11.71 58.2, 0 58 M0 58 C1.72 46.15, 1.79 34.7, 0 0 M0 58 C0.86 41.96, 1.34 24.82, 0 0" stroke="#2f9e44" stroke-width="2" fill="none"></path></g><g stroke-linecap="round" transform="translate(256 646.5489466523712) rotate(0 11 29)"><path d="M0 0 C7.58 1.37, 14.65 -0.18, 22 0 M0 0 C9.2 -0.14, 16.82 0.8, 22 0 M22 0 C20.73 14.11, 21.74 30.78, 22 58 M22 0 C22.03 13.05, 21.25 25.82, 22 58 M22 58 C13.19 59.21, 7.69 59.45, 0 58 M22 58 C15.77 57.29, 8.31 58.48, 0 58 M0 58 C-1.24 34.35, -1.65 10.47, 0 0 M0 58 C-0.43 43.56, 0.19 31.13, 0 0" stroke="#2f9e44" stroke-width="2" fill="none"></path></g><g stroke-linecap="round" transform="translate(258 837.5489466523712) rotate(0 11 29)"><path d="M0 0 C2.77 -0.93, 8.3 -0.19, 22 0 M0 0 C5.41 0.48, 11.49 0.99, 22 0 M22 0 C22.16 21.71, 22.16 47.69, 22 58 M22 0 C22.29 16.17, 21.47 29.69, 22 58 M22 58 C13.44 56.88, 5.19 56.35, 0 58 M22 58 C15.4 57.3, 7.65 57.45, 0 58 M0 58 C-1.4 43.19, -1.31 27.66, 0 0 M0 58 C0.16 37.67, -0.34 16.37, 0 0" stroke="#2f9e44" stroke-width="2" fill="none"></path></g><g transform="translate(901.1988231931834 62.46307980803462) rotate(0 80.65833282470703 22.5)"><text x="0" y="31.536" font-family="Virgil, Segoe UI Emoji" font-size="36px" fill="#e03131" text-anchor="start" style="white-space: pre;" direction="ltr" dominant-baseline="alphabetic">(10,10,90)</text></g><g stroke-linecap="round" transform="translate(136.6631958028056 762.07148494627) rotate(0 16.1187458928747 16.1187458928747)"><path d="M16.78 -0.46 C20.03 -0.67, 24.22 1.39, 26.77 3.83 C29.31 6.27, 31.59 10.74, 32.05 14.18 C32.51 17.63, 31.31 21.67, 29.52 24.51 C27.73 27.35, 24.5 30.22, 21.3 31.23 C18.1 32.24, 13.62 31.78, 10.3 30.56 C6.98 29.35, 3.1 26.89, 1.38 23.94 C-0.33 20.99, -0.85 16.32, -0.01 12.85 C0.83 9.37, 3.57 5.16, 6.44 3.1 C9.32 1.04, 15.41 0.9, 17.25 0.48 C19.09 0.07, 17.45 0.5, 17.5 0.61" stroke="#e03131" stroke-width="4.5" fill="none" stroke-dasharray="8 12"></path></g><g transform="translate(107.01744163383705 816.4682579455482) rotate(0 59.95000076293945 22.5)"><text x="0" y="31.536" font-family="Virgil, Segoe UI Emoji" font-size="36px" fill="#e03131" text-anchor="start" style="white-space: pre;" direction="ltr" dominant-baseline="alphabetic">(0,0,0)</text></g><g stroke-opacity="0.3" fill-opacity="0.3" stroke-linecap="round" transform="translate(806.1723380909662 10.000000000000256) rotate(89.9999999999999 146.5 146.5)"><path d="M0 0 C93.47 -1, 188.13 -2.61, 293 0 M0 0 C69.07 1.25, 137.55 1.52, 293 0 M293 0 C293.98 98.17, 293.25 197.26, 293 293 M293 0 C295.61 71.08, 294.86 141.06, 293 293 M293 293 C197.59 293.17, 103.33 294.82, 0 293 M293 293 C177.55 295.37, 63.93 295.33, 0 293 M0 293 C-2.89 187.24, -1.95 82.1, 0 0 M0 293 C-1.24 208.82, -0.91 124.16, 0 0" stroke="#1e1e1e" stroke-width="2" fill="none"></path></g><g stroke-opacity="0.3" fill-opacity="0.3" stroke-linecap="round" transform="translate(1039.1723380909652 4.999999999999261) rotate(89.9999999999999 11 29)"><path d="M0 0 C7.28 -1.75, 14.62 -0.9, 22 0 M0 0 C4.51 0.42, 11.16 0.64, 22 0 M22 0 C20.25 15.2, 20.64 32.75, 22 58 M22 0 C21.9 22.91, 22.59 45.74, 22 58 M22 58 C15.79 59.08, 8.76 59.43, 0 58 M22 58 C13.85 58.46, 5.28 59.06, 0 58 M0 58 C0.53 47.45, 0.06 34.76, 0 0 M0 58 C0.38 37.56, 0.54 17.78, 0 0" stroke="#1e1e1e" stroke-width="2" fill="none"></path></g><g stroke-opacity="0.3" fill-opacity="0.3" stroke-linecap="round" transform="translate(852.144603708618 7.0000000000056275) rotate(89.9999999999999 11 29)"><path d="M0 0 C5.82 -0.66, 13.12 0.1, 22 0 M0 0 C7.14 0.56, 13.2 -0.4, 22 0 M22 0 C20.36 17.36, 23.42 31.87, 22 58 M22 0 C22 21.96, 22.17 43.71, 22 58 M22 58 C18.36 59.67, 12.93 56.19, 0 58 M22 58 C15.09 59.05, 6.03 57.57, 0 58 M0 58 C-0.31 40.52, 0.9 20.67, 0 0 M0 58 C0.28 39.59, 0.01 21.52, 0 0" stroke="#1e1e1e" stroke-width="2" fill="none"></path></g><g stroke-opacity="0.3" fill-opacity="0.3" stroke-linecap="round" transform="translate(1041.1723380909705 237.99999999999565) rotate(89.9999999999999 11 29)"><path d="M0 0 C3.63 0.01, 9.61 -1.67, 22 0 M0 0 C7.2 -0.45, 14.75 -0.93, 22 0 M22 0 C23.53 18.05, 23.2 32.93, 22 58 M22 0 C22.57 17.79, 21.64 36.36, 22 58 M22 58 C15.97 56.23, 7.03 59.2, 0 58 M22 58 C13.68 57.7, 7.37 58.33, 0 58 M0 58 C1.04 35.7, 0.48 14.57, 0 0 M0 58 C-0.08 42.69, 0.43 26.57, 0 0" stroke="#1e1e1e" stroke-width="2" fill="none"></path></g><g stroke-opacity="0.3" fill-opacity="0.3" stroke-linecap="round" transform="translate(850.1723380909666 240.0000000000018) rotate(89.9999999999999 11 29)"><path d="M0 0 C5.82 -1.76, 12.2 0.75, 22 0 M0 0 C7.69 -0.72, 15.99 -0.53, 22 0 M22 0 C24.09 22.33, 22.7 46.9, 22 58 M22 0 C21.74 18.52, 22.84 36.62, 22 58 M22 58 C14.56 58.82, 6.16 59.03, 0 58 M22 58 C13.46 58, 5.33 57.76, 0 58 M0 58 C0.13 38.19, -0.76 18.08, 0 0 M0 58 C0.59 40.13, 0.63 20.18, 0 0" stroke="#1e1e1e" stroke-width="2" fill="none"></path></g><g stroke-linecap="round"><g transform="translate(177.11402541039251 741.7658173163125) rotate(0 372.5009196963598 -295.1117324578732)"><path d="M-0.04 0.21 C75.58 -87.63, 330.46 -428.21, 454.53 -526.78 C578.6 -625.36, 696 -580.77, 744.4 -591.24" stroke="#e03131" stroke-width="4.5" fill="none" stroke-dasharray="8 12"></path></g><g transform="translate(177.11402541039251 741.7658173163125) rotate(0 372.5009196963598 -295.1117324578732)"><path d="M720.9 -582.72 C729.88 -587.13, 739.91 -589.98, 744.4 -591.24" stroke="#e03131" stroke-width="4.5" fill="none"></path></g><g transform="translate(177.11402541039251 741.7658173163125) rotate(0 372.5009196963598 -295.1117324578732)"><path d="M720.92 -599.82 C729.94 -597.94, 739.95 -594.49, 744.4 -591.24" stroke="#e03131" stroke-width="4.5" fill="none"></path></g></g><mask></mask><g stroke-linecap="round" transform="translate(938.4791281780649 135.7326446215093) rotate(0 16.1187458928747 16.1187458928747)"><path d="M18.62 0.16 C21.79 0.51, 25.97 2.77, 28.24 5.45 C30.51 8.13, 32.25 12.71, 32.22 16.25 C32.19 19.79, 30.32 24.09, 28.06 26.68 C25.8 29.26, 22.08 31.27, 18.66 31.75 C15.24 32.24, 10.51 31.29, 7.52 29.57 C4.54 27.85, 1.88 24.64, 0.73 21.43 C-0.42 18.22, -0.64 13.56, 0.63 10.32 C1.89 7.08, 5.17 3.61, 8.34 2 C11.5 0.39, 17.56 0.78, 19.62 0.67 C21.68 0.56, 20.67 1.04, 20.7 1.32" stroke="#e03131" stroke-width="4.5" fill="none" stroke-dasharray="8 12"></path></g></svg>