<svg version="1.1" xmlns="http://www.w3.org/2000/svg" viewBox="0 0 1321.6687076409567 968.5228775981733" width="2643.3374152819133" height="1937.0457551963466" filter="invert(93%) hue-rotate(180deg)">
  <!-- svg-source:excalidraw -->
  
  <defs>
    <style class="style-fonts">
      @font-face {
        font-family: "Virgil";
        src: url("https://excalidraw.com/Virgil.woff2");
      }
      @font-face {
        font-family: "Cascadia";
        src: url("https://excalidraw.com/Cascadia.woff2");
      }
      @font-face {
        font-family: "Assistant";
        src: url("https://excalidraw.com/Assistant-Regular.woff2");
      }
    </style>
    
  </defs>
  <g stroke-linecap="round" transform="translate(385.81997104238735 501.3191839206935) rotate(0 58.76858678924668 57.5931897358862)"><path d="M81.89 4.39 C90.16 6.84, 98.62 13.41, 104.35 20.42 C110.08 27.43, 114.31 37.61, 116.26 46.44 C118.21 55.27, 118.52 64.85, 116.07 73.4 C113.62 81.96, 107.96 91.41, 101.56 97.76 C95.17 104.11, 86.49 108.63, 77.7 111.49 C68.91 114.36, 57.88 116.16, 48.81 114.95 C39.73 113.73, 30.58 109.56, 23.25 104.22 C15.92 98.88, 8.82 90.92, 4.84 82.88 C0.87 74.85, -0.9 65.05, -0.58 56.01 C-0.26 46.96, 2.29 36.47, 6.77 28.64 C11.25 20.8, 18.37 13.65, 26.28 8.98 C34.19 4.31, 44.44 1.11, 54.22 0.6 C64 0.1, 79.16 4.31, 84.95 5.95 C90.74 7.59, 89.13 9.64, 88.98 10.43 M86.83 5.98 C95.09 9.06, 101.59 18.26, 106.57 25.49 C111.54 32.73, 115.51 40.54, 116.69 49.41 C117.88 58.28, 116.91 70.04, 113.7 78.7 C110.49 87.36, 104.16 95.37, 97.44 101.39 C90.71 107.42, 81.83 112.87, 73.34 114.87 C64.84 116.87, 55.42 115.76, 46.47 113.41 C37.53 111.05, 26.6 106.41, 19.66 100.75 C12.73 95.08, 8.1 87.89, 4.86 79.44 C1.62 70.99, -0.82 58.9, 0.25 50.06 C1.32 41.21, 6.01 33.58, 11.28 26.36 C16.55 19.14, 24.11 10.92, 31.87 6.72 C39.63 2.52, 49.09 1.25, 57.83 1.15 C66.57 1.05, 79.54 5.23, 84.3 6.14 C89.06 7.05, 86.68 5.82, 86.4 6.61" stroke="none" stroke-width="0" fill="#ff8787"></path><path d="M40.98 1.96 C48.94 -1.33, 60.4 -0.48, 69.36 1.32 C78.32 3.11, 87.52 7.28, 94.72 12.71 C101.93 18.13, 108.71 25.85, 112.6 33.88 C116.49 41.92, 118.74 52.25, 118.08 60.92 C117.42 69.6, 113.42 78.41, 108.63 85.95 C103.84 93.49, 97.05 101.18, 89.33 106.15 C81.61 111.11, 71.42 114.99, 62.3 115.73 C53.19 116.47, 42.87 114.32, 34.63 110.58 C26.39 106.85, 18.56 100.31, 12.86 93.31 C7.16 86.32, 2.16 77.33, 0.42 68.59 C-1.33 59.85, -0.17 49.53, 2.39 40.88 C4.94 32.23, 8.32 23.13, 15.75 16.69 C23.18 10.26, 41.08 4.7, 46.98 2.28 C52.87 -0.13, 51.14 1.32, 51.12 2.22 M59.49 -1.32 C68.13 -1.7, 76.77 3.71, 84.84 8.15 C92.9 12.59, 102.53 18.13, 107.89 25.32 C113.25 32.51, 116.09 42.51, 117 51.27 C117.91 60.04, 116.37 69.59, 113.32 77.9 C110.28 86.2, 105.36 94.98, 98.7 101.08 C92.04 107.19, 82.57 112.42, 73.37 114.54 C64.17 116.66, 52.27 116.02, 43.51 113.82 C34.75 111.63, 27.67 107.45, 20.82 101.38 C13.98 95.3, 5.84 86.03, 2.47 77.37 C-0.91 68.7, -0.82 58.09, 0.6 49.38 C2.02 40.67, 5.8 32.29, 10.98 25.08 C16.16 17.87, 23.51 10.53, 31.67 6.14 C39.83 1.74, 55.55 -0.65, 59.95 -1.28 C64.34 -1.91, 58.01 1.15, 58.02 2.35" stroke="#ff8787" stroke-width="2" fill="none"></path></g><g stroke-linecap="round" transform="translate(431.79150892782764 545.7154034725933) rotate(0 12.797049426042577 13.196970236417087)"><path d="M15.29 -0.16 C17.97 0.02, 21.19 2.02, 22.86 4.33 C24.53 6.64, 25.38 10.83, 25.31 13.68 C25.23 16.53, 24.18 19.31, 22.4 21.43 C20.62 23.55, 17.39 25.8, 14.64 26.38 C11.89 26.96, 8.24 26.32, 5.88 24.89 C3.51 23.45, 1.33 20.52, 0.46 17.79 C-0.41 15.07, -0.31 11.24, 0.64 8.54 C1.59 5.84, 3.54 3, 6.15 1.58 C8.76 0.17, 14.49 0.24, 16.29 0.05 C18.1 -0.15, 17.17 0.2, 16.97 0.41 M13.25 0.59 C15.88 0.61, 18.86 1.94, 20.8 3.63 C22.73 5.32, 24.44 8.01, 24.84 10.74 C25.24 13.47, 24.57 17.57, 23.2 20.01 C21.83 22.45, 19.09 24.55, 16.63 25.39 C14.17 26.24, 10.85 26.06, 8.46 25.07 C6.07 24.08, 3.69 21.68, 2.28 19.44 C0.87 17.2, -0.29 14.39, 0 11.61 C0.29 8.84, 1.97 4.76, 4.01 2.8 C6.06 0.84, 10.75 0.32, 12.28 -0.15 C13.81 -0.62, 13.1 -0.17, 13.22 -0.02" stroke="none" stroke-width="0" fill="#e03131"></path><path d="M16.15 0.85 C18.69 1.31, 21.05 3.43, 22.67 5.6 C24.29 7.76, 25.93 11.04, 25.86 13.83 C25.8 16.63, 24.28 20.22, 22.28 22.38 C20.28 24.54, 16.66 26.59, 13.87 26.81 C11.08 27.03, 7.81 25.42, 5.53 23.7 C3.24 21.97, 0.89 19.02, 0.15 16.45 C-0.59 13.87, -0.03 10.75, 1.08 8.27 C2.18 5.78, 4.12 2.83, 6.78 1.53 C9.43 0.24, 15.25 0.51, 17 0.49 C18.74 0.46, 17.32 1.1, 17.26 1.37 M16.33 -0.23 C18.77 0.03, 20.86 2.32, 22.39 4.77 C23.91 7.22, 25.55 11.54, 25.48 14.46 C25.42 17.38, 23.79 20.23, 22.02 22.28 C20.24 24.33, 17.43 26.34, 14.82 26.75 C12.21 27.15, 8.72 26.43, 6.36 24.72 C4 23.01, 1.48 19.41, 0.66 16.49 C-0.17 13.58, 0.35 9.89, 1.4 7.25 C2.46 4.61, 4.46 1.81, 6.97 0.68 C9.48 -0.46, 15.06 0.43, 16.46 0.44 C17.87 0.44, 15.44 0.41, 15.39 0.71" stroke="#e03131" stroke-width="2" fill="none"></path></g><g stroke-linecap="round" transform="translate(151.5303651734339 621.014859523673) rotate(270 96.16523295041566 87.0608353419575)"><path d="M32 0 C69.2 -1.94, 107.44 0.76, 160.33 0 M32 0 C63.97 -0.66, 96.39 0.53, 160.33 0 M160.33 0 C180.19 0.85, 190.72 9.09, 192.33 32 M160.33 0 C180.51 0.63, 190.22 9.85, 192.33 32 M192.33 32 C193.1 64.84, 192.16 102.55, 192.33 142.12 M192.33 32 C193.42 58.95, 192.32 84.52, 192.33 142.12 M192.33 142.12 C194.02 162.52, 182.19 174.71, 160.33 174.12 M192.33 142.12 C194.02 162.86, 182.51 171.92, 160.33 174.12 M160.33 174.12 C126.38 172.46, 94.39 174.6, 32 174.12 M160.33 174.12 C130.39 175.28, 101.29 174.32, 32 174.12 M32 174.12 C12.63 174.15, 0.82 164.27, 0 142.12 M32 174.12 C12.2 174.66, -1.28 165.68, 0 142.12 M0 142.12 C0.5 101.46, 1.93 57.87, 0 32 M0 142.12 C-1.33 99.14, -1.52 58.55, 0 32 M0 32 C-1.33 9.75, 9.56 -0.91, 32 0 M0 32 C0.16 10.18, 10.19 0.47, 32 0" stroke="#1e1e1e" stroke-width="2" fill="none"></path></g><g stroke-linecap="round" transform="translate(321.02756513232725 631.4060884893644) rotate(270 23.316950922976048 9.58808278239053)"><path d="M4.79 0 C19.97 -1.38, 32.3 -1.2, 41.84 0 M4.79 0 C15.64 1, 27.36 0.12, 41.84 0 M41.84 0 C43.66 -0.91, 46.44 0.1, 46.63 4.79 M41.84 0 C47.21 -1, 46.59 0.59, 46.63 4.79 M46.63 4.79 C47.26 7.22, 45.71 8.91, 46.63 14.38 M46.63 4.79 C46.9 7.22, 46.66 9.46, 46.63 14.38 M46.63 14.38 C47.39 18.09, 46.38 20.67, 41.84 19.18 M46.63 14.38 C45.52 19.26, 45.34 17.92, 41.84 19.18 M41.84 19.18 C27.51 17.7, 16.66 19.15, 4.79 19.18 M41.84 19.18 C32.12 18.21, 21.88 18.31, 4.79 19.18 M4.79 19.18 C1.53 17.64, 1.84 15.65, 0 14.38 M4.79 19.18 C1.09 18.94, 1.85 16.17, 0 14.38 M0 14.38 C0.06 10.79, -0.81 8.52, 0 4.79 M0 14.38 C0.56 11.5, -0.38 7.51, 0 4.79 M0 4.79 C0.19 0.72, 0.65 0.61, 4.79 0 M0 4.79 C-1.64 -0.53, -0.7 2.1, 4.79 0" stroke="#1e1e1e" stroke-width="2" fill="none"></path></g><g stroke-linecap="round" transform="translate(321.02756598734413 698.4876114343552) rotate(270 23.316950922976048 9.58808278239053)"><path d="M4.79 0 C14.63 -1.11, 23.13 -1.49, 41.84 0 M4.79 0 C12.81 -0.4, 21.7 -0.74, 41.84 0 M41.84 0 C44.85 -1.5, 48.52 0.73, 46.63 4.79 M41.84 0 C44.99 -1, 44.87 -0.24, 46.63 4.79 M46.63 4.79 C45.86 7.23, 46.17 10.2, 46.63 14.38 M46.63 4.79 C46.69 6.98, 46.86 9.3, 46.63 14.38 M46.63 14.38 C47.98 19.07, 44.07 20.64, 41.84 19.18 M46.63 14.38 C46.94 16.32, 46.1 18.04, 41.84 19.18 M41.84 19.18 C30.21 18.76, 16.8 19.27, 4.79 19.18 M41.84 19.18 C32.14 18.24, 23.78 18.13, 4.79 19.18 M4.79 19.18 C3.43 17.25, -0.44 17.38, 0 14.38 M4.79 19.18 C3.45 17.76, 0.02 17.33, 0 14.38 M0 14.38 C-0.82 12.15, 0.48 9.24, 0 4.79 M0 14.38 C-0.56 11.45, -0.05 8.61, 0 4.79 M0 4.79 C-0.95 2.21, 0.17 -1.85, 4.79 0 M0 4.79 C-2.3 3.7, 1.8 0.4, 4.79 0" stroke="#1e1e1e" stroke-width="2" fill="none"></path></g><g stroke-linecap="round" transform="translate(321.02756484708016 765.5691346641155) rotate(270 23.316950922976048 9.58808278239053)"><path d="M4.79 0 C13.27 -1.52, 19.89 -1.4, 41.84 0 M4.79 0 C18.07 -0.41, 32.62 -0.71, 41.84 0 M41.84 0 C46.93 -0.87, 46.59 0.73, 46.63 4.79 M41.84 0 C43.27 -1.84, 45.97 3.27, 46.63 4.79 M46.63 4.79 C46.01 8.16, 45.87 11.61, 46.63 14.38 M46.63 4.79 C46.82 7.97, 46.96 11.26, 46.63 14.38 M46.63 14.38 C45.67 19.04, 45.3 18.08, 41.84 19.18 M46.63 14.38 C47.7 16.44, 45.66 17.46, 41.84 19.18 M41.84 19.18 C32.86 19.54, 24.33 18.99, 4.79 19.18 M41.84 19.18 C33.49 18.16, 26.13 17.97, 4.79 19.18 M4.79 19.18 C1.15 18.97, 1.61 16.35, 0 14.38 M4.79 19.18 C1.62 18.93, -1.76 17.71, 0 14.38 M0 14.38 C0.56 11.35, -0.01 10.99, 0 4.79 M0 14.38 C0.14 10.35, -0.13 6.88, 0 4.79 M0 4.79 C-1.43 -0.26, -0.4 1.82, 4.79 0 M0 4.79 C0.2 2, 3.5 2.11, 4.79 0" stroke="#1e1e1e" stroke-width="2" fill="none"></path></g><g stroke-linecap="round" transform="translate(127.72972815707499 631.4060887400307) rotate(270 23.316950922976048 9.58808278239053)"><path d="M4.79 0 C15.29 2.18, 29.4 1.34, 41.84 0 M4.79 0 C15.97 -0.29, 26.33 0.97, 41.84 0 M41.84 0 C43.33 -1, 44.98 1.75, 46.63 4.79 M41.84 0 C44.94 -0.61, 46.63 3.54, 46.63 4.79 M46.63 4.79 C46.55 9.3, 47.52 12.84, 46.63 14.38 M46.63 4.79 C46.77 8.21, 46.26 12.18, 46.63 14.38 M46.63 14.38 C48.61 19.04, 44.56 21.17, 41.84 19.18 M46.63 14.38 C46.9 17.69, 46.75 20.18, 41.84 19.18 M41.84 19.18 C27 18.16, 13.65 20.14, 4.79 19.18 M41.84 19.18 C30.79 18.5, 19.11 19.83, 4.79 19.18 M4.79 19.18 C2.27 17.77, 0.81 16.38, 0 14.38 M4.79 19.18 C3.65 20.93, -0.31 16.36, 0 14.38 M0 14.38 C-0.47 10.84, 0.69 7.78, 0 4.79 M0 14.38 C-0.42 11.31, 0.05 8.87, 0 4.79 M0 4.79 C-1.2 3.48, 1.99 0.83, 4.79 0 M0 4.79 C-0.01 1.99, 2.47 0.39, 4.79 0" stroke="#1e1e1e" stroke-width="2" fill="none"></path></g><g stroke-linecap="round" transform="translate(127.7297290120905 698.4876116850229) rotate(270 23.316950922976048 9.58808278239053)"><path d="M4.79 0 C14.44 0.66, 19.92 1.54, 41.84 0 M4.79 0 C14.41 0.92, 21.24 -0.3, 41.84 0 M41.84 0 C43.38 0.16, 46.55 1.07, 46.63 4.79 M41.84 0 C45.03 1.94, 48.44 1.51, 46.63 4.79 M46.63 4.79 C47.51 7.69, 47.25 9.41, 46.63 14.38 M46.63 4.79 C46.24 7.41, 47.13 9.6, 46.63 14.38 M46.63 14.38 C46.16 19.57, 45.27 19.27, 41.84 19.18 M46.63 14.38 C48.35 18.59, 46.91 21.35, 41.84 19.18 M41.84 19.18 C33.23 20.24, 24.67 17.73, 4.79 19.18 M41.84 19.18 C29.45 19.39, 17.11 18.17, 4.79 19.18 M4.79 19.18 C2.41 17.98, 1.79 19.1, 0 14.38 M4.79 19.18 C1.29 17.95, 0.7 19.54, 0 14.38 M0 14.38 C0.81 10.73, 0.15 7.26, 0 4.79 M0 14.38 C0.1 11.21, -0.2 7.55, 0 4.79 M0 4.79 C0.39 2.43, 1.59 0.34, 4.79 0 M0 4.79 C0.87 1.99, 0.04 -0.79, 4.79 0" stroke="#1e1e1e" stroke-width="2" fill="none"></path></g><g stroke-linecap="round" transform="translate(127.7297278718288 765.5691349147834) rotate(270 23.316950922976048 9.58808278239053)"><path d="M4.79 0 C18.89 1.69, 32.55 1.6, 41.84 0 M4.79 0 C13.06 -0.77, 22.19 -0.19, 41.84 0 M41.84 0 C44.95 -0.53, 46.63 3.29, 46.63 4.79 M41.84 0 C46.85 -0.09, 44.79 1.41, 46.63 4.79 M46.63 4.79 C47.34 8.94, 46.07 12.5, 46.63 14.38 M46.63 4.79 C47.03 7.86, 46.44 10.71, 46.63 14.38 M46.63 14.38 C46.86 17.67, 46.53 20.05, 41.84 19.18 M46.63 14.38 C48.51 19.75, 43.52 18.36, 41.84 19.18 M41.84 19.18 C32.32 18.1, 23.22 20.17, 4.79 19.18 M41.84 19.18 C34.1 18.66, 26.09 18.77, 4.79 19.18 M4.79 19.18 C3.38 20.7, -0.27 16.52, 0 14.38 M4.79 19.18 C2.3 21.14, 1.23 16.65, 0 14.38 M0 14.38 C0.04 11.53, 0.69 8.47, 0 4.79 M0 14.38 C-0.29 12.13, 0.09 9.17, 0 4.79 M0 4.79 C-0.01 1.94, 2.36 0.34, 4.79 0 M0 4.79 C-1.55 0.81, 2.98 0.55, 4.79 0" stroke="#1e1e1e" stroke-width="2" fill="none"></path></g><g stroke-linecap="round" transform="translate(163.59601287592432 603.4053915382582) rotate(270 17.699738268762758 8.505071088067666)"><path d="M4.25 0 C12.72 2.08, 16.36 -3.49, 31.15 0 C37.52 0.34, 38.98 -0.84, 35.4 4.25 C36.2 7.2, 35.57 9.95, 35.4 12.76 C37.31 17.76, 30.71 17.28, 31.15 17.01 C23.16 16.71, 9.81 20.73, 4.25 17.01 C-1.24 16.59, 2.38 18.41, 0 12.76 C0.83 10.82, -0.25 9.04, 0 4.25 C-3.21 -1, 2.26 -3.19, 4.25 0" stroke="none" stroke-width="0" fill="#e9ecef"></path><path d="M4.25 0 C12.81 1.49, 19.39 -0.47, 31.15 0 M4.25 0 C13.75 0.17, 22.88 0.36, 31.15 0 M31.15 0 C34.06 1.5, 36.45 0.29, 35.4 4.25 M31.15 0 C31.69 -1.35, 36.57 2.04, 35.4 4.25 M35.4 4.25 C35.59 8.21, 35.41 10.27, 35.4 12.76 M35.4 4.25 C35.75 6.66, 35.49 8.8, 35.4 12.76 M35.4 12.76 C33.98 16.63, 35.29 16.18, 31.15 17.01 M35.4 12.76 C34.39 15.68, 34.3 18.69, 31.15 17.01 M31.15 17.01 C21.63 16.68, 14.36 17.97, 4.25 17.01 M31.15 17.01 C25.14 16.86, 19.87 16.38, 4.25 17.01 M4.25 17.01 C1.55 15.77, -0.77 15.34, 0 12.76 M4.25 17.01 C1.41 16.02, 1.78 14.99, 0 12.76 M0 12.76 C-0.35 10.81, 0.84 8.47, 0 4.25 M0 12.76 C0.37 9.88, -0.35 7.15, 0 4.25 M0 4.25 C-1.76 1.33, -0.18 0.78, 4.25 0 M0 4.25 C-0.17 -0.29, 0.57 0.97, 4.25 0" stroke="#1e1e1e" stroke-width="2" fill="none"></path></g><g stroke-linecap="round" transform="translate(229.99586039534188 603.4053900339858) rotate(270 17.699738268762758 8.505071088067666)"><path d="M4.25 0 C10.6 -0.54, 19.42 1.68, 31.15 0 C34.44 -0.8, 38.64 4.08, 35.4 4.25 C35.25 8.09, 34.06 10.17, 35.4 12.76 C32.82 14.08, 32.95 15.27, 31.15 17.01 C26.76 14.07, 21.51 15.95, 4.25 17.01 C0.83 14.56, -0.98 18.95, 0 12.76 C0.91 10.37, -0.81 8.35, 0 4.25 C-3.05 2.35, 4.58 -2.17, 4.25 0" stroke="none" stroke-width="0" fill="#e9ecef"></path><path d="M4.25 0 C12.93 -0.11, 19.38 1.23, 31.15 0 M4.25 0 C12.45 0.25, 22.94 0.02, 31.15 0 M31.15 0 C32.48 -0.99, 33.48 3.01, 35.4 4.25 M31.15 0 C32.64 0.31, 33.88 1.28, 35.4 4.25 M35.4 4.25 C34.89 6.58, 36.13 8.56, 35.4 12.76 M35.4 4.25 C35.16 6.96, 35.7 9.92, 35.4 12.76 M35.4 12.76 C34.86 13.89, 32.3 17.37, 31.15 17.01 M35.4 12.76 C33.94 17.8, 33.76 16.26, 31.15 17.01 M31.15 17.01 C22.56 15.27, 10.62 18.18, 4.25 17.01 M31.15 17.01 C22.37 16.85, 14.74 17.42, 4.25 17.01 M4.25 17.01 C3.1 16.64, 1.53 17.26, 0 12.76 M4.25 17.01 C1.18 18.22, 1.66 15.58, 0 12.76 M0 12.76 C-0.73 10.71, -0.24 8.17, 0 4.25 M0 12.76 C-0.33 10.6, 0.21 8.1, 0 4.25 M0 4.25 C-0.28 1.15, 0.75 -1.83, 4.25 0 M0 4.25 C0.31 3.31, 1.48 -1.69, 4.25 0" stroke="#1e1e1e" stroke-width="2" fill="none"></path></g><g stroke-linecap="round" transform="translate(196.7959359025167 603.4053892336516) rotate(270 17.699738268762758 8.505071088067666)"><path d="M4.25 0 C9.44 3.01, 20.59 -1.11, 31.15 0 C31.13 0.88, 35.95 3.27, 35.4 4.25 C36.38 7.66, 34.64 9.68, 35.4 12.76 C34.82 14.25, 34.21 18.6, 31.15 17.01 C21.71 19.12, 14.05 13.75, 4.25 17.01 C1.66 13.46, 0.01 15.56, 0 12.76 C0.76 10.5, -0.53 9.38, 0 4.25 C3.19 0.95, -0.03 1.97, 4.25 0" stroke="none" stroke-width="0" fill="#e9ecef"></path><path d="M4.25 0 C12.53 -0.02, 22.13 1.58, 31.15 0 M4.25 0 C9.93 0.11, 17.24 0.52, 31.15 0 M31.15 0 C34.02 0.39, 37.27 0.25, 35.4 4.25 M31.15 0 C33.3 1.91, 36.37 1.6, 35.4 4.25 M35.4 4.25 C35.29 7.94, 34.69 10.92, 35.4 12.76 M35.4 4.25 C35.6 5.81, 35.15 7.65, 35.4 12.76 M35.4 12.76 C34.94 17.49, 32.55 18.22, 31.15 17.01 M35.4 12.76 C35.29 15.48, 34.55 15.1, 31.15 17.01 M31.15 17.01 C20.14 16.69, 10.3 16.84, 4.25 17.01 M31.15 17.01 C23.13 18.03, 14.64 18.02, 4.25 17.01 M4.25 17.01 C2.02 15.05, -0.02 17.56, 0 12.76 M4.25 17.01 C3.48 16.3, -0.01 16.07, 0 12.76 M0 12.76 C-0.54 11.07, 0.75 7.7, 0 4.25 M0 12.76 C0.38 10.6, -0.33 8.75, 0 4.25 M0 4.25 C-0.41 -0.37, -0.5 0.45, 4.25 0 M0 4.25 C-2.26 0.22, 2.3 0.34, 4.25 0" stroke="#1e1e1e" stroke-width="2" fill="none"></path></g><g stroke-linecap="round" transform="translate(296.39570730185005 603.4053910229658) rotate(270 17.699738268762758 8.505071088067666)"><path d="M4.25 0 C7.46 2.48, 17.59 1.86, 31.15 0 C32.22 1.82, 35.14 2.57, 35.4 4.25 C34.23 6.74, 35.14 9.75, 35.4 12.76 C37.03 14.31, 35.35 16.39, 31.15 17.01 C26.5 14.67, 20.11 15.98, 4.25 17.01 C4.49 15.9, -2.42 16.91, 0 12.76 C1.5 8.96, -0.8 8.79, 0 4.25 C-3.13 -0.66, -2 0.24, 4.25 0" stroke="none" stroke-width="0" fill="#e9ecef"></path><path d="M4.25 0 C9.46 0.2, 16.48 0.07, 31.15 0 M4.25 0 C13.13 0.44, 20.45 -0.4, 31.15 0 M31.15 0 C35.92 1.77, 35.14 0.61, 35.4 4.25 M31.15 0 C35.24 -2.08, 33.38 3.38, 35.4 4.25 M35.4 4.25 C35.02 6.84, 35.51 10.38, 35.4 12.76 M35.4 4.25 C35.05 6.92, 35.01 9.38, 35.4 12.76 M35.4 12.76 C36.22 14.9, 35.75 17.88, 31.15 17.01 M35.4 12.76 C36.48 15.53, 32.94 18.92, 31.15 17.01 M31.15 17.01 C22.12 16.31, 16.01 17.01, 4.25 17.01 M31.15 17.01 C20.39 17.57, 9.82 17.28, 4.25 17.01 M4.25 17.01 C2.71 18.17, 1.69 17.3, 0 12.76 M4.25 17.01 C2.06 15.91, -0.08 14.14, 0 12.76 M0 12.76 C-0.12 9.13, 0.46 6.05, 0 4.25 M0 12.76 C0.28 10.09, 0.32 7.23, 0 4.25 M0 4.25 C0.24 -0.57, 3.26 1.94, 4.25 0 M0 4.25 C1.54 2.15, 2.2 0.55, 4.25 0" stroke="#1e1e1e" stroke-width="2" fill="none"></path></g><g stroke-linecap="round" transform="translate(261.1788506951689 603.4053885097775) rotate(270 17.699738268762758 8.505071088067666)"><path d="M4.25 0 C15.04 2.35, 23.89 -0.73, 31.15 0 C31.56 0.45, 34.81 -0.8, 35.4 4.25 C35.49 5.75, 36.13 8.97, 35.4 12.76 C34.27 14.67, 36.14 17.29, 31.15 17.01 C25.62 19.6, 16.38 18.48, 4.25 17.01 C-2.07 20.37, -1 15.41, 0 12.76 C0.57 12.01, 0.92 7.82, 0 4.25 C2.06 2.64, 4.85 -2.32, 4.25 0" stroke="none" stroke-width="0" fill="#e9ecef"></path><path d="M4.25 0 C11.12 0.92, 23.24 -1.4, 31.15 0 M4.25 0 C13.9 0.01, 24.03 -0.97, 31.15 0 M31.15 0 C32.87 -0.69, 36.15 0.09, 35.4 4.25 M31.15 0 C32.01 0.45, 35.44 3.31, 35.4 4.25 M35.4 4.25 C35.25 6.29, 36.15 9.53, 35.4 12.76 M35.4 4.25 C35.69 7.03, 35.82 9.43, 35.4 12.76 M35.4 12.76 C34.12 13.72, 33.49 17.15, 31.15 17.01 M35.4 12.76 C35.73 13.95, 34.4 15.37, 31.15 17.01 M31.15 17.01 C22.91 17.72, 17.69 15, 4.25 17.01 M31.15 17.01 C21.02 17.14, 12.34 17.43, 4.25 17.01 M4.25 17.01 C1.7 15.9, 1.14 15.83, 0 12.76 M4.25 17.01 C1.96 18.7, -1.51 13.77, 0 12.76 M0 12.76 C0.76 9.77, 0.64 7.35, 0 4.25 M0 12.76 C0.02 9.61, -0.43 6.47, 0 4.25 M0 4.25 C1.5 -0.21, 2.14 1.13, 4.25 0 M0 4.25 C-1.7 1.66, 2.24 -1.37, 4.25 0" stroke="#1e1e1e" stroke-width="2" fill="none"></path></g><g stroke-linecap="round" transform="translate(94.3097370515834 10) rotate(0 175.1394104138235 274.45618657892436)"><path d="M32 0 C119.49 1.11, 205.84 2.11, 318.28 0 M32 0 C111.4 1.34, 191.35 2.57, 318.28 0 M318.28 0 C337.71 0.19, 349.11 11.7, 350.28 32 M318.28 0 C338.3 -0.77, 348.79 8.98, 350.28 32 M350.28 32 C350.03 190.35, 349.87 349.1, 350.28 516.91 M350.28 32 C349.48 208.34, 349.74 385.63, 350.28 516.91 M350.28 516.91 C352.05 538.14, 338.9 547.71, 318.28 548.91 M350.28 516.91 C348.53 538.62, 338.83 550.81, 318.28 548.91 M318.28 548.91 C225.12 550.65, 130.71 550.15, 32 548.91 M318.28 548.91 C221.64 549.75, 123.45 550.04, 32 548.91 M32 548.91 C9.87 547.07, 1.59 540.1, 0 516.91 M32 548.91 C9.04 547.93, -0.76 536.29, 0 516.91 M0 516.91 C-0.1 401.46, 0.78 287.37, 0 32 M0 516.91 C-2.04 363.06, -1.71 209.63, 0 32 M0 32 C-0.82 9, 12.28 -0.11, 32 0 M0 32 C-1.44 11.03, 11.3 -2.04, 32 0" stroke="#fa5252" stroke-width="2" fill="none"></path></g><g transform="translate(145.6122014594048 311.94594523372587) rotate(0 107.20603942871094 58.96223908664274)"><text x="107.20603942871094" y="82.64147430383844" font-family="Virgil, Segoe UI Emoji" font-size="94.33958253862836px" fill="#fa5252" text-anchor="middle" style="white-space: pre;" direction="ltr" dominant-baseline="alphabetic">Goal</text></g><g stroke-linecap="round" transform="translate(1076.4610046423786 575.1183872882026) rotate(270 96.16523295041566 87.0608353419575)"><path d="M32 0 C80.97 2.09, 125.56 2.29, 160.33 0 M160.33 0 C181.78 0.04, 193.32 9.5, 192.33 32 M192.33 32 C192.37 60.63, 191.44 86.15, 192.33 142.12 M192.33 142.12 C192.75 163.98, 180.99 174.47, 160.33 174.12 M160.33 174.12 C131.66 172.91, 102.7 176.08, 32 174.12 M32 174.12 C10.96 172.64, 1.01 162.49, 0 142.12 M0 142.12 C-2.18 120.22, -0.24 97.44, 0 32 M0 32 C0.43 11, 9.35 1.62, 32 0" stroke="#1e1e1e" stroke-width="2.5" fill="none" stroke-dasharray="8 10"></path></g><g stroke-linecap="round" transform="translate(1245.9582046012738 585.5096162538945) rotate(270 23.316950922976048 9.58808278239053)"><path d="M4.79 0 C13.08 1.48, 24.1 -0.25, 41.84 0 M41.84 0 C46.03 -1.17, 45.56 1.61, 46.63 4.79 M46.63 4.79 C46.21 7.53, 46.84 10.59, 46.63 14.38 M46.63 14.38 C45.96 17.92, 43.52 18.89, 41.84 19.18 M41.84 19.18 C28.58 20.08, 15.83 17.34, 4.79 19.18 M4.79 19.18 C2.61 18.21, -1.83 18.04, 0 14.38 M0 14.38 C0.1 12.05, 0.3 8.72, 0 4.79 M0 4.79 C-1.32 3.22, 2.14 1.54, 4.79 0" stroke="#1e1e1e" stroke-width="2.5" fill="none" stroke-dasharray="8 10"></path></g><g stroke-linecap="round" transform="translate(1245.9582054562898 652.5911391988853) rotate(270 23.316950922976048 9.58808278239053)"><path d="M4.79 0 C18.92 -0.29, 33.81 -1.5, 41.84 0 M41.84 0 C43.96 0.01, 46.42 1.63, 46.63 4.79 M46.63 4.79 C46.79 8.65, 46.27 12.16, 46.63 14.38 M46.63 14.38 C45.12 17.29, 46.13 19.27, 41.84 19.18 M41.84 19.18 C34.56 17.93, 27.71 18.45, 4.79 19.18 M4.79 19.18 C-0.23 19.64, 0.07 15.66, 0 14.38 M0 14.38 C0.21 11.16, -0.63 8.41, 0 4.79 M0 4.79 C0.55 3.14, 2.97 1.61, 4.79 0" stroke="#1e1e1e" stroke-width="2.5" fill="none" stroke-dasharray="8 10"></path></g><g stroke-linecap="round" transform="translate(1245.9582043160253 719.6726624286454) rotate(270 23.316950922976048 9.58808278239053)"><path d="M4.79 0 C20.18 -1.17, 32.5 0.01, 41.84 0 M41.84 0 C44.82 0.03, 48.15 0.7, 46.63 4.79 M46.63 4.79 C46.33 7.8, 45.93 10.33, 46.63 14.38 M46.63 14.38 C47.73 17.67, 43.12 19.07, 41.84 19.18 M41.84 19.18 C29.4 17.94, 13.12 19.36, 4.79 19.18 M4.79 19.18 C1.67 17.25, 1.04 17.59, 0 14.38 M0 14.38 C-0.65 11.7, 0.24 8.21, 0 4.79 M0 4.79 C1.37 3.21, 0.89 -1.74, 4.79 0" stroke="#1e1e1e" stroke-width="2.5" fill="none" stroke-dasharray="8 10"></path></g><g stroke-linecap="round" transform="translate(1052.660367626021 585.5096165045608) rotate(270 23.316950922976048 9.58808278239053)"><path d="M4.79 0 C14.9 0.23, 26.95 0.25, 41.84 0 M41.84 0 C46.55 -0.9, 46.56 2.02, 46.63 4.79 M46.63 4.79 C45.87 7.78, 47.13 11.09, 46.63 14.38 M46.63 14.38 C44.72 17.47, 46.29 19.46, 41.84 19.18 M41.84 19.18 C31.64 19.46, 25.18 17.08, 4.79 19.18 M4.79 19.18 C2.64 19.19, 1.21 18.01, 0 14.38 M0 14.38 C0.33 12.08, 0.72 9.08, 0 4.79 M0 4.79 C-0.71 -0.14, -0.01 -1.42, 4.79 0" stroke="#1e1e1e" stroke-width="2.5" fill="none" stroke-dasharray="8 10"></path></g><g stroke-linecap="round" transform="translate(1052.6603684810361 652.591139449553) rotate(270 23.316950922976048 9.58808278239053)"><path d="M4.79 0 C13.53 0.03, 24.21 -0.9, 41.84 0 M41.84 0 C44.96 0.42, 47.16 0.92, 46.63 4.79 M46.63 4.79 C47.09 7.88, 45.64 10.83, 46.63 14.38 M46.63 14.38 C47.89 17.87, 43.55 20.18, 41.84 19.18 M41.84 19.18 C32.58 17.34, 24.22 19.28, 4.79 19.18 M4.79 19.18 C2.81 19.61, 0.33 16.26, 0 14.38 M0 14.38 C0.63 11.5, -0.37 6.24, 0 4.79 M0 4.79 C-1.61 0.18, 3.52 -1.81, 4.79 0" stroke="#1e1e1e" stroke-width="2.5" fill="none" stroke-dasharray="8 10"></path></g><g stroke-linecap="round" transform="translate(1052.6603673407744 719.6726626793126) rotate(270 23.316950922976048 9.58808278239053)"><path d="M4.79 0 C17.45 -0.9, 26.99 0.42, 41.84 0 M41.84 0 C45.56 -0.68, 46.98 0.08, 46.63 4.79 M46.63 4.79 C45.77 7.48, 47.29 10.41, 46.63 14.38 M46.63 14.38 C45.15 18.59, 44.07 17.34, 41.84 19.18 M41.84 19.18 C30.92 18.84, 19.11 19.25, 4.79 19.18 M4.79 19.18 C1.93 17.86, 1.62 18.12, 0 14.38 M0 14.38 C-0.41 9.93, -0.84 6.48, 0 4.79 M0 4.79 C1.92 -0.21, 1.07 1.02, 4.79 0" stroke="#1e1e1e" stroke-width="2.5" fill="none" stroke-dasharray="8 10"></path></g><g stroke-linecap="round" transform="translate(1088.5266523448709 557.5089193027885) rotate(270 17.699738268762758 8.505071088067666)"><path d="M4.25 0 C13.64 2.56, 19.16 3.04, 31.15 0 C33.28 2.36, 32.63 -0.46, 35.4 4.25 C34.23 8.75, 35.77 11.12, 35.4 12.76 C38.34 15.41, 35 16.61, 31.15 17.01 C18.17 19.36, 11.03 17.97, 4.25 17.01 C3.6 18.79, 3.59 14.67, 0 12.76 C-0.67 9.04, -0.82 7.92, 0 4.25 C-2.74 1.31, 3.13 -2.87, 4.25 0" stroke="none" stroke-width="0" fill="#e9ecef"></path><path d="M4.25 0 C12.28 0.54, 20.99 -0.56, 31.15 0 M31.15 0 C34.33 -1.52, 35.11 2.52, 35.4 4.25 M35.4 4.25 C35.85 6.96, 34.69 9.86, 35.4 12.76 M35.4 12.76 C34.44 13.76, 34.44 17.08, 31.15 17.01 M31.15 17.01 C26.87 17.44, 20.51 15.7, 4.25 17.01 M4.25 17.01 C3.04 17.56, 1.54 16.96, 0 12.76 M0 12.76 C-0.65 8.92, 0.85 5.51, 0 4.25 M0 4.25 C-0.53 2.44, 1.54 1.13, 4.25 0" stroke="#1e1e1e" stroke-width="2.5" fill="none" stroke-dasharray="8 10"></path></g><g stroke-linecap="round" transform="translate(1154.9264998642875 557.5089177985161) rotate(270 17.699738268762758 8.505071088067666)"><path d="M4.25 0 C14.5 3.11, 24.99 1.95, 31.15 0 C31.21 -1.88, 37.56 4.89, 35.4 4.25 C35.49 7.36, 36.52 8.9, 35.4 12.76 C36.42 15.19, 36 19.92, 31.15 17.01 C21.71 18.2, 16.36 19.1, 4.25 17.01 C5.01 16.09, -1.05 14.91, 0 12.76 C-0.78 10.04, -1.1 7.76, 0 4.25 C1.71 -1.46, 1.87 -2.88, 4.25 0" stroke="none" stroke-width="0" fill="#e9ecef"></path><path d="M4.25 0 C11.64 -0.73, 18.32 -1.57, 31.15 0 M31.15 0 C33.69 1.1, 35.49 -0.5, 35.4 4.25 M35.4 4.25 C34.82 7.19, 35.04 8.49, 35.4 12.76 M35.4 12.76 C35.86 15.67, 32.06 18.05, 31.15 17.01 M31.15 17.01 C23.39 15.75, 16.59 17.61, 4.25 17.01 M4.25 17.01 C2.96 18.38, 1.61 14.88, 0 12.76 M0 12.76 C0.89 10.18, -0.16 9.57, 0 4.25 M0 4.25 C0.13 2.54, 1.14 -1.49, 4.25 0" stroke="#1e1e1e" stroke-width="2.5" fill="none" stroke-dasharray="8 10"></path></g><g stroke-linecap="round" transform="translate(1121.7265753714628 557.5089169981812) rotate(270 17.699738268762758 8.505071088067666)"><path d="M4.25 0 C13.89 1.89, 22.16 -2.35, 31.15 0 C36.14 3.47, 34.6 -1.68, 35.4 4.25 C36.67 7.53, 35.85 10.78, 35.4 12.76 C37.42 18.5, 34.53 13.61, 31.15 17.01 C23.55 18.91, 15.19 16.21, 4.25 17.01 C0.36 16.32, -0.31 13.95, 0 12.76 C-1.08 10.95, 0.81 8.01, 0 4.25 C0.45 -1.46, -1.57 1.58, 4.25 0" stroke="none" stroke-width="0" fill="#e9ecef"></path><path d="M4.25 0 C13.23 -1.43, 21.23 1.19, 31.15 0 M31.15 0 C34.07 -1.91, 35.29 2.68, 35.4 4.25 M35.4 4.25 C34.93 6.15, 35.53 9.63, 35.4 12.76 M35.4 12.76 C33.48 16.64, 34 18.22, 31.15 17.01 M31.15 17.01 C24.12 17.38, 15.39 18.2, 4.25 17.01 M4.25 17.01 C3.03 16.3, -1.74 13.99, 0 12.76 M0 12.76 C-0.31 11.24, -0.03 9.34, 0 4.25 M0 4.25 C-0.28 -0.07, 3.39 0.94, 4.25 0" stroke="#1e1e1e" stroke-width="2.5" fill="none" stroke-dasharray="8 10"></path></g><g stroke-linecap="round" transform="translate(1221.3263467707957 557.5089187874961) rotate(270 17.699738268762758 8.505071088067666)"><path d="M4.25 0 C12.17 -2.2, 27.8 3.15, 31.15 0 C33.18 -3.09, 38.78 1.94, 35.4 4.25 C35.96 7.05, 36.38 11.42, 35.4 12.76 C35.95 12.19, 36.26 16.05, 31.15 17.01 C26.01 16.33, 12.64 16.56, 4.25 17.01 C1.1 15.37, -3.33 13.6, 0 12.76 C0.84 9.12, 0.31 6.69, 0 4.25 C-2.98 3, 2.15 0.43, 4.25 0" stroke="none" stroke-width="0" fill="#e9ecef"></path><path d="M4.25 0 C11.12 1.3, 18.66 -1.71, 31.15 0 M31.15 0 C33.88 1.26, 35.69 -0.07, 35.4 4.25 M35.4 4.25 C35.55 7.26, 34.54 10.66, 35.4 12.76 M35.4 12.76 C35.42 16.8, 34.41 17.34, 31.15 17.01 M31.15 17.01 C26.39 18.46, 20.16 16.37, 4.25 17.01 M4.25 17.01 C-0.32 15.4, -1.42 17.52, 0 12.76 M0 12.76 C0.08 11.45, -0.1 8.56, 0 4.25 M0 4.25 C1.97 2.36, 3.11 -0.27, 4.25 0" stroke="#1e1e1e" stroke-width="2.5" fill="none" stroke-dasharray="8 10"></path></g><g stroke-linecap="round" transform="translate(1186.1094901641145 557.5089162743076) rotate(270 17.699738268762758 8.505071088067666)"><path d="M4.25 0 C16.24 3.72, 23.11 -2.84, 31.15 0 C37.36 0.53, 37.15 4.36, 35.4 4.25 C36.3 8, 35.68 7.82, 35.4 12.76 C37.68 14.63, 34.86 19.19, 31.15 17.01 C20.69 16.2, 12.04 15.25, 4.25 17.01 C-1.91 15.01, -0.56 12.85, 0 12.76 C0.12 9.01, -1.34 8.38, 0 4.25 C0.73 1.84, 1.46 -3.38, 4.25 0" stroke="none" stroke-width="0" fill="#e9ecef"></path><path d="M4.25 0 C10.37 -2.06, 16.2 1.11, 31.15 0 M31.15 0 C34.27 -1.48, 36.41 0.45, 35.4 4.25 M35.4 4.25 C34.6 6.47, 35.43 8.31, 35.4 12.76 M35.4 12.76 C35.83 15.92, 32.67 18.63, 31.15 17.01 M31.15 17.01 C23.96 16.48, 11.8 15.59, 4.25 17.01 M4.25 17.01 C0 18.93, -1.81 15.06, 0 12.76 M0 12.76 C-0.12 9.14, 0.83 7.19, 0 4.25 M0 4.25 C1.69 1.15, 3.37 -0.39, 4.25 0" stroke="#1e1e1e" stroke-width="2.5" fill="none" stroke-dasharray="8 10"></path></g><g stroke-linecap="round"><g transform="translate(249.2969844232548 709.2887178162756) rotate(0 467.31090893493615 37.79518785605978)"><path d="M0.57 0.53 C29.98 12.83, 61.16 49.65, 176.61 74.42 C292.07 99.19, 571.57 149.79, 693.32 149.15 C815.07 148.51, 866.99 107.58, 907.14 70.59 C947.28 33.6, 929.53 -48.79, 934.21 -72.79" stroke="#2f9e44" stroke-width="2.5" fill="none" stroke-dasharray="8 10"></path></g><g transform="translate(249.2969844232548 709.2887178162756) rotate(0 467.31090893493615 37.79518785605978)"><path d="M942.54 -49.22 C940.67 -56.57, 936.84 -62.94, 934.21 -72.79" stroke="#2f9e44" stroke-width="2.5" fill="none"></path></g><g transform="translate(249.2969844232548 709.2887178162756) rotate(0 467.31090893493615 37.79518785605978)"><path d="M925.44 -49.38 C928.97 -56.76, 930.54 -63.08, 934.21 -72.79" stroke="#2f9e44" stroke-width="2.5" fill="none"></path></g></g><mask></mask><g stroke-linecap="round"><g transform="translate(251.78414133563774 710.5322108853167) rotate(0 466.9494506457638 41.65864016873195)"><path d="M0.01 0.06 C20.09 -7.68, 72.54 -42.96, 121.66 -45.76 C170.77 -48.56, 234.95 -39.66, 294.7 -16.74 C354.44 6.18, 417.16 64.12, 480.13 91.74 C543.09 119.37, 608.36 145.89, 672.49 149.01 C736.62 152.14, 821.85 131.3, 864.89 110.5 C907.94 89.7, 919.31 53.68, 930.76 24.22 C942.21 -5.25, 933.11 -51.08, 933.58 -66.28" stroke="#f08c00" stroke-width="2.5" fill="none" stroke-dasharray="8 10"></path></g><g transform="translate(251.78414133563774 710.5322108853167) rotate(0 466.9494506457638 41.65864016873195)"><path d="M943.64 -43.39 C939.61 -52.84, 935.93 -61.62, 933.58 -66.28" stroke="#f08c00" stroke-width="2.5" fill="none"></path></g><g transform="translate(251.78414133563774 710.5322108853167) rotate(0 466.9494506457638 41.65864016873195)"><path d="M926.57 -42.28 C929.32 -52.17, 932.42 -61.4, 933.58 -66.28" stroke="#f08c00" stroke-width="2.5" fill="none"></path></g></g><mask></mask><g transform="translate(10 708.3455189976518) rotate(0 42.94166564941406 22.5)"><text x="0" y="31.536" font-family="Virgil, Segoe UI Emoji" font-size="36px" fill="#1e1e1e" text-anchor="start" style="white-space: pre;" direction="ltr" dominant-baseline="alphabetic">(0,0)</text></g><g transform="translate(1180.6520450433004 471.48207019511653) rotate(0 65.50833129882812 22.5)"><text x="0" y="31.536" font-family="Virgil, Segoe UI Emoji" font-size="36px" fill="#1e1e1e" text-anchor="start" style="white-space: pre;" direction="ltr" dominant-baseline="alphabetic">(120,10)</text></g><g transform="translate(649.4072732371824 609.0175090358092) rotate(0 158.80833435058594 22.5)"><text x="0" y="31.536" font-family="Virgil, Segoe UI Emoji" font-size="36px" fill="#f08c00" text-anchor="start" style="white-space: pre;" direction="ltr" dominant-baseline="alphabetic">path without turn</text></g><g stroke-linecap="round"><g transform="translate(795.7280347541628 667.0185316191167) rotate(0 -63.93294534750953 36.90974164392287)"><path d="M0.64 -1.18 C-6.04 6.56, -17.9 34.13, -39.34 46.72 C-60.78 59.31, -113.3 69.92, -128.01 74.37 M-0.49 0.82 C-6.87 8.67, -15.82 35.96, -37.21 47.88 C-58.61 59.79, -113.86 67.91, -128.85 72.31" stroke="#f08c00" stroke-width="2" fill="none"></path></g><g transform="translate(795.7280347541628 667.0185316191167) rotate(0 -63.93294534750953 36.90974164392287)"><path d="M-107.77 58.87 C-117.29 61.97, -124.14 68.42, -128.85 72.31 M-107.77 58.87 C-114.4 63.61, -122.01 68.5, -128.85 72.31" stroke="#f08c00" stroke-width="2" fill="none"></path></g><g transform="translate(795.7280347541628 667.0185316191167) rotate(0 -63.93294534750953 36.90974164392287)"><path d="M-104.07 75.57 C-114.96 72.67, -123.15 73.11, -128.85 72.31 M-104.07 75.57 C-112.01 74.52, -120.9 73.65, -128.85 72.31" stroke="#f08c00" stroke-width="2" fill="none"></path></g></g><mask></mask><g transform="translate(719.2721413488935 913.5228775981733) rotate(0 128.44166564941406 22.5)"><text x="0" y="31.536" font-family="Virgil, Segoe UI Emoji" font-size="36px" fill="#2f9e44" text-anchor="start" style="white-space: pre;" direction="ltr" dominant-baseline="alphabetic">path with turn</text></g><g stroke-linecap="round"><g transform="translate(706.0900907617784 942.5233888898271) rotate(0 -29.000511291653766 -46.79627958425942)"><path d="M-1.03 -0.61 C-10.9 -16.37, -48.81 -78.94, -58.24 -94.48 M0.62 1.68 C-9.5 -13.95, -49.51 -77.68, -59.31 -93.41" stroke="#2f9e44" stroke-width="2" fill="none"></path></g><g transform="translate(706.0900907617784 942.5233888898271) rotate(0 -29.000511291653766 -46.79627958425942)"><path d="M-39.6 -78.04 C-48.08 -84.42, -56 -89.21, -59.31 -93.41 M-39.6 -78.04 C-45.56 -81.42, -50.41 -85.47, -59.31 -93.41" stroke="#2f9e44" stroke-width="2" fill="none"></path></g><g transform="translate(706.0900907617784 942.5233888898271) rotate(0 -29.000511291653766 -46.79627958425942)"><path d="M-54.09 -68.96 C-57.09 -78.65, -59.54 -86.87, -59.31 -93.41 M-54.09 -68.96 C-56.11 -74.93, -56.99 -81.47, -59.31 -93.41" stroke="#2f9e44" stroke-width="2" fill="none"></path></g></g><mask></mask></svg>