<svg version="1.1" xmlns="http://www.w3.org/2000/svg" viewBox="0 0 822.4000142415366 475.039388321087" width="1644.8000284830732" height="950.078776642174">
  <!-- svg-source:excalidraw -->
  
  <defs>
    <style class="style-fonts">
      @font-face {
        font-family: "Virgil";
        src: url("https://excalidraw.com/Virgil.woff2");
      }
      @font-face {
        font-family: "Cascadia";
        src: url("https://excalidraw.com/Cascadia.woff2");
      }
      @font-face {
        font-family: "Assistant";
        src: url("https://excalidraw.com/Assistant-Regular.woff2");
      }
    </style>
    
  </defs>
  <rect x="0" y="0" width="822.4000142415366" height="475.039388321087" fill="#ffffff"></rect><g stroke-linecap="round" transform="translate(10 172.03938832108702) rotate(0 146.5 146.5)"><path d="M0 0 C59.89 0.59, 122.43 -1.3, 293 0 M0 0 C89.64 -0.66, 178.92 -0.02, 293 0 M293 0 C295.34 78.56, 294.95 154.32, 293 293 M293 0 C291.27 74.37, 290.85 149.61, 293 293 M293 293 C217.35 292.43, 138.01 291.92, 0 293 M293 293 C184.27 291.89, 74.32 291.98, 0 293 M0 293 C1.43 196.66, -0.1 99.88, 0 0 M0 293 C1.61 198.14, 1.69 103.39, 0 0" stroke="#1e1e1e" stroke-width="2" fill="none"></path></g><g stroke-linecap="round" transform="translate(23 192.03938832108702) rotate(0 11 29)"><path d="M0 0 C10.46 -0.02, 18.78 0.78, 22 0 M0 0 C7.88 0.51, 13.95 -1.2, 22 0 M22 0 C22.61 14.34, 19.94 27.78, 22 58 M22 0 C22.26 23.38, 21.46 44.68, 22 58 M22 58 C17.62 57.1, 14.45 59.3, 0 58 M22 58 C13.19 58.05, 6.78 58.61, 0 58 M0 58 C0.94 40.8, 2.04 22.32, 0 0 M0 58 C0.24 40.44, 0.04 20.65, 0 0" stroke="#2f9e44" stroke-width="2" fill="none"></path></g><g stroke-linecap="round" transform="translate(25 375.039388321087) rotate(0 11 29)"><path d="M0 0 C2.74 0.54, 9.43 0.59, 22 0 M0 0 C7.7 0.26, 14.42 -0.56, 22 0 M22 0 C20.58 14.91, 21.25 30.13, 22 58 M22 0 C21.71 13.62, 22.53 24.57, 22 58 M22 58 C14.77 58.3, 11.77 58.67, 0 58 M22 58 C16.86 57.81, 11.71 58.2, 0 58 M0 58 C1.72 46.15, 1.79 34.7, 0 0 M0 58 C0.86 41.96, 1.34 24.82, 0 0" stroke="#2f9e44" stroke-width="2" fill="none"></path></g><g stroke-linecap="round" transform="translate(256 190.03938832108702) rotate(0 11 29)"><path d="M0 0 C7.58 1.37, 14.65 -0.18, 22 0 M0 0 C9.2 -0.14, 16.82 0.8, 22 0 M22 0 C20.73 14.11, 21.74 30.78, 22 58 M22 0 C22.03 13.05, 21.25 25.82, 22 58 M22 58 C13.19 59.21, 7.69 59.45, 0 58 M22 58 C15.77 57.29, 8.31 58.48, 0 58 M0 58 C-1.24 34.35, -1.65 10.47, 0 0 M0 58 C-0.43 43.56, 0.19 31.13, 0 0" stroke="#2f9e44" stroke-width="2" fill="none"></path></g><g stroke-linecap="round" transform="translate(258 381.039388321087) rotate(0 11 29)"><path d="M0 0 C2.77 -0.93, 8.3 -0.19, 22 0 M0 0 C5.41 0.48, 11.49 0.99, 22 0 M22 0 C22.16 21.71, 22.16 47.69, 22 58 M22 0 C22.29 16.17, 21.47 29.69, 22 58 M22 58 C13.44 56.88, 5.19 56.35, 0 58 M22 58 C15.4 57.3, 7.65 57.45, 0 58 M0 58 C-1.4 43.19, -1.31 27.66, 0 0 M0 58 C0.16 37.67, -0.34 16.37, 0 0" stroke="#2f9e44" stroke-width="2" fill="none"></path></g><g stroke-opacity="0.3" fill-opacity="0.3" stroke-linecap="round" transform="translate(72.58333333333348 63.622721654420275) rotate(59.999999999999986 146.5 146.5)"><path d="M0 0 C87.1 1.07, 173.55 2.38, 293 0 M0 0 C102.5 1.21, 205.63 1.22, 293 0 M293 0 C292.82 92.08, 291.88 184.61, 293 293 M293 0 C292.74 115.71, 292.84 231.93, 293 293 M293 293 C191.25 295.02, 87.21 292.41, 0 293 M293 293 C193.26 293.68, 92.18 294.98, 0 293 M0 293 C-1.94 179.83, -3.36 64.45, 0 0 M0 293 C-2.31 197.06, -1.13 102.52, 0 0" stroke="#1e1e1e" stroke-width="2" fill="none"></path></g><g stroke-opacity="0.3" fill-opacity="0.3" stroke-linecap="round" transform="translate(231.27081020231617 26.284609690826642) rotate(59.999999999999986 11 29)"><path d="M0 0 C5.67 1.7, 11.93 0.81, 22 0 M0 0 C6.44 0.53, 11.91 -0.67, 22 0 M22 0 C22.43 15.19, 24.29 31.36, 22 58 M22 0 C20.76 21.73, 22 42.09, 22 58 M22 58 C14.35 56.43, 8.19 58.28, 0 58 M22 58 C13.84 58.72, 7.05 58.75, 0 58 M0 58 C-1.81 35.44, 0.48 17.04, 0 0 M0 58 C1.32 44.91, 0.47 30.7, 0 0" stroke="#1e1e1e" stroke-width="2" fill="none"></path></g><g stroke-opacity="0.3" fill-opacity="0.3" stroke-linecap="round" transform="translate(73.78816130976384 119.5166604983956) rotate(59.999999999999986 11 29)"><path d="M0 0 C7.51 0.62, 12.36 -0.47, 22 0 M0 0 C8.2 -0.68, 15.76 0.5, 22 0 M22 0 C23.92 16.43, 23.42 30.41, 22 58 M22 0 C22.08 15.2, 21.9 32.85, 22 58 M22 58 C14.33 57.89, 6.16 59.36, 0 58 M22 58 C18.13 59.13, 13.17 58.27, 0 58 M0 58 C1.03 39.77, -0.7 16.92, 0 0 M0 58 C-0.45 44.21, -0.5 30.15, 0 0" stroke="#1e1e1e" stroke-width="2" fill="none"></path></g><g stroke-opacity="0.3" fill-opacity="0.3" stroke-linecap="round" transform="translate(349.50286100988524 227.06852877260064) rotate(59.999999999999986 11 29)"><path d="M0 0 C7.8 -0.37, 18.22 1.05, 22 0 M0 0 C7.76 0.77, 15.95 0.14, 22 0 M22 0 C23.96 14.74, 22.1 31.49, 22 58 M22 0 C22.62 19.49, 23.17 37.44, 22 58 M22 58 C18.54 59.56, 11 57.53, 0 58 M22 58 C14.1 58.27, 5.28 57.32, 0 58 M0 58 C-1.36 42.93, -1.23 32.25, 0 0 M0 58 C-0.01 36.67, -0.16 13.95, 0 0" stroke="#1e1e1e" stroke-width="2" fill="none"></path></g><g stroke-opacity="0.3" fill-opacity="0.3" stroke-linecap="round" transform="translate(185.09200888705755 324.3005795801696) rotate(59.999999999999986 11 29)"><path d="M0 0 C8.79 1.17, 16.31 0.34, 22 0 M0 0 C5.21 -0.12, 10.72 0.81, 22 0 M22 0 C21.95 16.95, 22.89 37.88, 22 58 M22 0 C23.06 12.13, 21.31 25.01, 22 58 M22 58 C13.63 57.69, 10.41 59.94, 0 58 M22 58 C13.78 57.13, 4.07 58.28, 0 58 M0 58 C-0.73 37.61, 1.94 13.56, 0 0 M0 58 C-0.12 37.8, 0.76 17.39, 0 0" stroke="#1e1e1e" stroke-width="2" fill="none"></path></g><g stroke-linecap="round"><g transform="translate(36.583333333333485 320.1227216544204) rotate(0 65 -108.125)"><path d="M-0.93 0.7 C2.26 -23.31, -2.15 -107.32, 19.78 -143.6 C41.7 -179.89, 112.3 -205.1, 130.65 -217.02" stroke="#e03131" stroke-width="2.5" fill="none" stroke-dasharray="8 10"></path></g><g transform="translate(36.583333333333485 320.1227216544204) rotate(0 65 -108.125)"><path d="M113.62 -198.71 C120.77 -205.46, 123.82 -210.52, 130.65 -217.02" stroke="#e03131" stroke-width="2.5" fill="none"></path></g><g transform="translate(36.583333333333485 320.1227216544204) rotate(0 65 -108.125)"><path d="M105.84 -213.94 C115.82 -215.22, 121.63 -214.86, 130.65 -217.02" stroke="#e03131" stroke-width="2.5" fill="none"></path></g></g><mask></mask><g stroke-linecap="round" transform="translate(266.5833333333335 305.1227216544204) rotate(0 8.75 8.75)"><path d="M8.41 0.08 C10.32 -0.01, 13.17 0.79, 14.63 1.87 C16.09 2.94, 16.87 4.67, 17.19 6.55 C17.51 8.44, 17.43 11.42, 16.55 13.19 C15.67 14.96, 13.65 16.59, 11.93 17.19 C10.21 17.8, 7.95 17.4, 6.23 16.82 C4.5 16.23, 2.6 15.32, 1.59 13.69 C0.58 12.05, -0.01 8.89, 0.18 7.01 C0.37 5.13, 1.29 3.61, 2.75 2.41 C4.21 1.22, 7.84 0.18, 8.93 -0.16 C10.02 -0.51, 9.33 0.1, 9.31 0.33" stroke="#e03131" stroke-width="2.5" fill="none" stroke-dasharray="8 10"></path></g><g transform="translate(484.0833333333335 291.3727216544204) rotate(0 164.15834045410156 22.5)"><text x="0" y="31.536" font-family="Virgil, Segoe UI Emoji" font-size="36px" fill="#e03131" text-anchor="start" style="white-space: pre;" direction="ltr" dominant-baseline="alphabetic">center of rotation</text></g><g stroke-linecap="round"><g transform="translate(477.8333333333335 337.6227216544204) rotate(0 -87.5 1.25)"><path d="M0.28 0.37 C-14.2 3.63, -58.16 21.44, -87.56 18.77 C-116.95 16.09, -161.53 -9.88, -176.09 -15.66 M-1.03 -0.48 C-15.62 3.05, -59.74 23.18, -88.53 20.31 C-117.32 17.44, -159.41 -11.88, -173.76 -17.7" stroke="#e03131" stroke-width="2" fill="none"></path></g><g transform="translate(477.8333333333335 337.6227216544204) rotate(0 -87.5 1.25)"><path d="M-149 -14.24 C-154.41 -15.12, -161.04 -17.68, -173.76 -17.7 M-149 -14.24 C-158.08 -15.73, -166.4 -15.94, -173.76 -17.7" stroke="#e03131" stroke-width="2" fill="none"></path></g><g transform="translate(477.8333333333335 337.6227216544204) rotate(0 -87.5 1.25)"><path d="M-157.02 0.86 C-160.37 -3.72, -165.04 -9.97, -173.76 -17.7 M-157.02 0.86 C-163.3 -5.92, -168.83 -11.4, -173.76 -17.7" stroke="#e03131" stroke-width="2" fill="none"></path></g></g><mask></mask></svg>